<?xml version="1.0" encoding="utf-8"?>
<!-- Generator: Adobe Illustrator 22.1.0, SVG Export Plug-In . SVG Version: 6.00 Build 0)  -->
<svg version="1.1" id="Layer_1" xmlns="http://www.w3.org/2000/svg" xmlns:xlink="http://www.w3.org/1999/xlink" x="0px" y="0px"
	 viewBox="0 0 20 20" style="enable-background:new 0 0 20 20;" xml:space="preserve">
<path d="M8,14.5l6-4.5L8,5.5 M20,10c0-5.5-4.5-10-10-10C8.8,0,7.7,0.2,6.6,0.6l0.7,1.9C8.2,2.2,9.1,2,10,2c4.4,0,8,3.6,8,8
	s-3.6,8-8,8s-8-3.6-8-8c0-0.9,0.2-1.9,0.5-2.7L0.6,6.6C0.2,7.7,0,8.8,0,10c0,5.5,4.5,10,10,10S20,15.5,20,10 M3.5,2
	C4.3,2,5,2.7,5,3.5C5,4.3,4.3,5,3.5,5C2.7,5,2,4.3,2,3.5C2,2.7,2.7,2,3.5,2z"/>
</svg>
