<svg id="Layer_1" data-name="Layer 1" xmlns="http://www.w3.org/2000/svg" viewBox="0 0 339.4 384">
  <title>3d-file</title>
  <g>
    <path d="M258.2,0C266.8,2,273,7.7,279,13.8q25,25.3,50.4,50.4a31.9,31.9,0,0,1,10,24.1q-.1,117.9,0,235.8c0,1.1,0,2.3-.1,3.4a5.1,5.1,0,0,1-4.9,4.8c-3,.3-5.1-1-5.9-4a19.1,19.1,0,0,1-.4-4.8V82.5l-4.4-.2h-45c-13.6,0-21.4-7.8-21.5-21.4s-.1-30.2.1-45.4c0-3.2-.7-4.3-4.1-4.3H66.4c-11.6,0-20.1,8.9-20.2,21-.2,16.8-.1,33.5-.1,50.3v67.3H69.8c1.5,0,3.3-.5,4.4.2s3.9,2.8,4.6,4.7-.7,4.9-3.4,5.8a12.7,12.7,0,0,1-4.4.6H33.9c-7.6,0-15.3.8-22.6-4.1V162c0,51.2.2,102.5-.2,153.7,0,12.3,8.3,18.9,19.1,18.9,58.9-.3,117.7-.2,176.6-.2,12.8,0,19-6.2,19.1-19.1,0-45.1-.2-90.2.1-135.3,0-10.8-6.7-19.1-19-19-34.5.5-69,.2-103.5.2a16.8,16.8,0,0,1-4.5-.3c-2.9-.8-4.5-2.8-4.2-5.8a5.1,5.1,0,0,1,5-5.1h108c17.8.1,29.3,11.5,29.3,29.4V316.1c0,18.1-11.5,29.6-29.5,29.6H46.8c-3.9,14.2,6,27,20.8,27h243c10.5,0,17.2-6.7,17.6-17.2,0-2,.2-4.5,1.4-5.6a8,8,0,0,1,5.9-1.8c2.6.2,3.7,2.5,3.9,5.2,1,14.5-7.7,26.4-21.8,30l-1.7.7H61.7l-.9-.6C44,379.3,35,367.8,34.9,350.5v-4.8h-7C11.9,345.4.1,333.9.1,318q-.2-90.6,0-181.1c0-14.6,10.6-24.9,25.2-25h9.6V36.5C34.9,16,42,6.2,61.4.3l.3-.3Zm10.4,20.9c0,.4-.1,1.3-.1,2.3V61c0,7.1,2.9,10,10,10.1h40.3ZM34.7,149.9V123.4c-4.3,0-8.4-.5-12.4.1-6.9,1-11.3,6.8-11,13.8a13.1,13.1,0,0,0,12.5,12.5C27.3,150.1,30.7,149.9,34.7,149.9Z"/>
    <path d="M54.6,247.7c0-8.8.1-17.5,0-26.3-.1-6.8,2.8-11.5,8.7-14.9,15.2-8.6,30.4-17.4,45.4-26.2,5.8-3.4,11.3-3.4,17,0,15.2,8.8,30.4,17.7,45.7,26.4,5.7,3.2,8.5,7.8,8.5,14.3v53.6c0,6.4-2.8,10.9-8.3,14.1q-23.1,13.2-46,26.6c-5.6,3.3-11,3.3-16.7,0-15.1-8.9-30.4-17.7-45.7-26.4-5.9-3.4-8.7-8.2-8.6-15C54.7,265.2,54.6,256.4,54.6,247.7Zm11.3-23.1c0,17.5-.1,34,.1,50.6a5.1,5.1,0,0,0,2.2,3.5c13.8,8.1,27.6,16,41.5,24l1.5.5a5.6,5.6,0,0,0,.4-1.5c0-16.3.1-32.5-.1-48.7,0-1.1-1.2-2.6-2.3-3.3-6-3.7-12.2-7.2-18.4-10.7Zm102.5.1c-15,8.7-29.5,17-43.9,25.5-1,.6-1.5,2.7-1.5,4.1-.2,15.2-.1,30.4-.1,45.7,0,1,.2,2,.3,3.5l2.7-1.4c13-7.5,26.1-15.2,39.2-22.6a6.4,6.4,0,0,0,3.6-6.3c-.1-14.9-.1-29.9-.1-44.9C168.6,227.3,168.5,226.4,168.4,224.7Zm-96.9-9.9L116,240.5a3.2,3.2,0,0,0,2.7-.2c14.7-8.3,29.2-16.8,43.9-25.2a4.7,4.7,0,0,0-.9-1c-14.1-8.1-28.1-16.3-42.2-24.2-1.3-.8-3.7-.5-5.1.3-5.1,2.6-10,5.6-14.9,8.5Z"/>
    <path d="M117.6,71.2h29.6c4.2,0,6.6,2,6.7,5.4s-2.4,5.8-6.7,5.8H87.3c-4.3,0-6.9-2.3-6.8-5.8s2.6-5.4,6.7-5.4Z"/>
    <path d="M117.4,41.2H147c4.4,0,6.9,2.2,6.9,5.6s-2.5,5.7-6.9,5.7H87.4c-4.3,0-6.9-2.3-6.9-5.7s2.6-5.6,6.9-5.6Z"/>
    <path d="M22.3,123.5c4-.6,8.1-.1,12.4-.1v26.5c-4,0-7.4.2-10.9-.1a13.1,13.1,0,0,1-12.5-12.5" style="fill: #fff"/>
  </g>
</svg>
