<?xml version="1.0" encoding="utf-8"?>
<!-- Generator: Adobe Illustrator 22.1.0, SVG Export Plug-In . SVG Version: 6.00 Build 0)  -->
<svg version="1.1" id="Layer_1" xmlns="http://www.w3.org/2000/svg" xmlns:xlink="http://www.w3.org/1999/xlink" x="0px" y="0px"
	 viewBox="0 0 20 20" style="enable-background:new 0 0 20 20;" xml:space="preserve">
<path d="M10,0c5.5,0,10,4.5,10,10s-4.5,10-10,10S0,15.5,0,10S4.5,0,10,0 M10,2C8.1,2,6.4,2.6,5.1,3.7l11.2,11.2
	c1-1.4,1.7-3.1,1.7-4.9C18,5.6,14.4,2,10,2 M14.9,16.3L3.7,5.1C2.6,6.4,2,8.1,2,10c0,4.4,3.6,8,8,8C11.9,18,13.6,17.4,14.9,16.3z"/>
</svg>
